<?xml version="1.0" encoding="UTF-8"?>
<svg width="198.66mm" height="171.64mm" version="1.1" viewBox="0 0 703.90999 608.16014" xmlns="http://www.w3.org/2000/svg">
 <g transform="translate(-40.184 -2.6108e-6)">
  <g transform="translate(-76.876 -341.5)">
   <path d="m205.04 341.5-87.977 152.38 87.977 152.38h175.95l87.977-152.38-87.977-152.38h-175.95zm18.125 31.395h139.7l69.852 120.98-69.852 120.98h-139.7l-69.85-120.98 69.85-120.99z" fill="#ff6500"/>
   <path d="m232.7 389.41-60.311 104.46 60.311 104.46h120.62l60.311-104.46-60.311-104.46h-120.62zm11.016 19.078h98.592l49.295 85.383-49.295 85.383h-98.592l-49.295-85.383 49.295-85.383z" fill="red"/>
   <path d="m253.08 424.71-39.932 69.164 39.932 69.164h79.865l39.932-69.164-39.932-69.164h-79.865zm8.1816 14.172h63.502l31.75 54.992-31.75 54.992h-63.502l-31.75-54.992 31.75-54.992z" fill="#f60"/>
  </g>
  <g transform="translate(-76.825 -646.2)">
   <path d="m575.07 677.65-69.85 120.98 69.85 120.98h139.7l69.852-120.98-69.852-120.98h-139.7zm9.5391 16.523h120.62l60.311 104.46-60.311 104.46h-120.62l-60.311-104.46 60.311-104.46zm11.016 19.078-49.295 85.383 49.295 85.383h98.592l49.295-85.383-49.295-85.383h-98.592zm9.3633 16.219h79.865l39.932 69.164-39.932 69.164h-79.865l-39.932-69.164 39.932-69.164zm8.1816 14.172-31.75 54.992 31.75 54.992h63.502l31.75-54.992-31.75-54.992h-63.502z" fill="#fff6d5"/>
   <path d="m556.94 646.25-87.977 152.38 87.977 152.38h175.95l87.977-152.38-87.977-152.38h-175.95zm18.125 31.395h139.7l69.852 120.98-69.852 120.98h-139.7l-69.85-120.98 69.85-120.98zm9.5391 16.523-60.311 104.46 60.311 104.46h120.62l60.311-104.46-60.311-104.46h-120.62zm11.016 19.078h98.592l49.295 85.383-49.295 85.383h-98.592l-49.295-85.383 49.295-85.383zm9.3633 16.219-39.932 69.164 39.932 69.164h79.865l39.932-69.164-39.932-69.164h-79.865zm8.1816 14.172h63.502l31.75 54.992-31.75 54.992h-63.502l-31.75-54.992 31.75-54.992z" fill="#ff6500"/>
   <path d="m732.89 646.25-175.95 304.76" fill="none" stroke="#000" stroke-linecap="round" stroke-linejoin="round" stroke-width=".1"/>
   <path d="m468.96 798.63h351.9" fill="none" stroke="#000" stroke-linecap="round" stroke-linejoin="round" stroke-width=".1"/>
   <path d="m556.94 646.25 175.95 304.76" fill="none" stroke="#000" stroke-linecap="round" stroke-linejoin="round" stroke-width=".1"/>
  </g>
  <g transform="translate(-432.55 -494.53)">
   <path d="m1000.6 799.34c-9.1886-5e-3 -18.378 8.9e-4 -27.566 0.0176-21.292 0.13251-42.813-0.06-63.961 0.35742 5.8402 10.073 11.583 20.244 17.559 30.211 46.501-0.13845 93.039-0.14431 139.52-0.36524 5.6572-9.9986 11.776-19.996 17.146-29.994-27.566-0.1121-55.13-0.21223-82.695-0.22656zm-74.611 32.463c-16.761 28.41-33.101 57.267-49.684 85.857-6.1414 10.964-12.871 21.795-18.633 32.861 4.6945 1.3955 10.026 0.25652 14.924 0.65039 4.3455 1.2124 4.6164-4.6374 6.8555-7.0469 18.501-32.166 37.307-64.203 55.57-96.477-1.6887-5.6013-5.1211-10.676-8.3691-15.514-0.17383-0.16461-0.40103-0.37331-0.66406-0.33203zm140.32 4e-3c-3.6347 3.9341-5.8757 9.1773-8.3593 13.939-1.7596 3.0584 2.2543 5.5271 3.0156 8.2559 18.688 32.406 37.372 64.855 56.174 97.17 5.8147-0.38211 11.963 0.73885 17.615-0.60156-2.5909-5.8196-6.4909-11.422-9.5391-17.16-19.562-33.861-38.972-67.91-58.721-101.6-0.06-0.0166-0.1249-0.0157-0.1856-2e-3zm-129.7 15.326-0.0859 0.15039c3.6379 6.2216 7.1777 12.541 10.875 18.703 32.577-0.0333 65.189 0.0654 97.744-0.0508 3.5057-6.2681 7.481-12.535 10.701-18.803h-119.23zm10.162 20.451c-16.359 27.411-32.5 55.009-48.117 82.836 1.9785 1.3936 5.199 0.29419 7.5527 0.63281 3.3765-0.0881 6.7894-0.0646 10.143-0.24023 13.175-22.9 26.486-45.764 39.578-68.686-3.08-4.7214-5.4528-10.424-9.1562-14.543zm98.879 0.21875-0.037 4e-3c-3.7538 4.2362-6.1495 9.6358-9.0938 14.436 13.188 22.737 26.116 45.653 39.533 68.24 5.5579 1.2069 11.502 0.74434 17.162 0.35351 1.6811-0.65738-1.1646-2.7017-1.1583-3.7285-15.278-26.533-30.47-53.199-46.406-79.305zm-47.465 14.852c-4.1145-5e-3 -8.2292 5.9e-4 -12.344 0.0176-9.536 0.12986-19.297-0.0533-28.688 0.36328 2.5715 4.4441 5.0385 8.993 7.6719 13.375 20.959-0.0333 41.952 0.0654 62.889-0.0508 2.4361-4.491 5.3482-8.9828 7.5-13.473-12.343-0.11634-24.686-0.21788-37.029-0.23242zm-33.631 14.883-0.12109 6e-3c-10.636 17.668-21.187 35.691-31.08 53.629 20.731-0.10031 41.694 0.20001 62.281-0.14844-10.457-17.768-20.302-35.925-31.08-53.486zm63.346 0-0.025 0.0156c-10.747 17.577-20.611 35.704-31.055 53.471 20.588 0.34813 41.548 0.0484 62.279 0.14844-9.8947-17.937-20.441-35.961-31.078-53.629l-0.1211-6e-3zm39.637 54.039c-2.5688 1e-3 -5.1359 0.0532-7.6797 0.0684-10.494 18.256-21.119 36.477-31.52 54.762 2.8398 4.1455 4.856 9.3658 8.0664 13.012 12.989-22.475 26.285-45.016 38.818-67.607-2.5475-0.18645-5.1168-0.23559-7.6856-0.23437zm104.08 0c-5.9383 0.0551-11.876 0.109-17.814 0.16406-5.9619 0.0884-11.959 0.0448-17.898 0.21484-23.132 40.126-46.398 80.217-69.447 120.37 5.9815 9.7293 10.927 20.186 17.652 29.414 1.7684 0.8095 1.9099-3.2163 3.0937-3.8652 28.171-48.711 56.45-97.632 84.414-146.29zm-239.1 0.0195c-3.0725 6e-3 -6.1463-0.0144-9.2188 0.01-1.8826 0.27263-4.4695-0.33674-6.0176 0.65235 12.97 22.312 25.379 45.009 39.182 66.807 2.8501-3.9096 5.1562-8.5742 7.627-12.816-10.53-18.209-20.971-36.51-31.572-54.652zm181.15 4e-3c-2.6712-0.0257-5.4771 0.16875-8.1348 0.13672-3.5776 0.091-7.193 0.0467-10.748 0.21875-16.197 28.321-32.918 56.4-48.643 84.955 3.5289 5.7041 6.2929 12.264 10.574 17.318 20.354-33.86 39.699-68.353 59.566-102.51-0.8501-0.0739-1.7249-0.10665-2.6152-0.11524zm-283.99 0.0508c-2.9644-5e-3 -5.9148 0.0139-8.8418 0.0742 29.143 50.314 57.984 100.81 87.387 150.97 6.1506-9.8372 11.931-20.334 17.791-30.465-23.19-40.095-46.287-80.285-69.537-120.32-8.888-7e-3 -17.906-0.24125-26.799-0.25585zm50.799 0.0391c-1.0047 0.32308-3.7957-0.57493-3.9082 0.86914 19.767 33.924 39.053 68.139 59.258 101.8 3.8827-5.4037 7.3919-11.641 10.475-17.609-15.883-28.472-32.394-56.635-48.705-84.842-5.7062-0.0711-11.412-0.22703-17.119-0.21679zm115.69 1.1738-0.041 0.0391c-10.479 17.286-20.674 34.775-30.457 52.461 11.649 0.8687 23.735 0.349 35.539 0.5194 8.4868-0.1983 17.261 0.2751 25.59-0.5194-9.804-17.693-19.977-35.225-30.498-52.5h-0.13281zm0.0156 67.744c-13.201-0.01-26.399 0-39.582 0.057-2.8979 5.236-6.265 10.47-8.8926 15.695 32.35-0.1 64.932 0.198 97.139-0.1504-3.045-5.18-5.9801-10.463-9.0665-15.594-13.194 0.017-26.397 0-39.598-0.01zm0 35.443c-20.045-0.01-40.087 0-60.115 0.057-2.7639 5.2446-6.477 10.627-8.6894 15.83 44.745 0.7673 89.514 0.5707 134.27 0.1367 1.2534-0.2138 5.0648 0.6863 2.8711-1.6484-2.7043-4.801-5.3873-9.6574-8.2012-14.369-20.039 0.017-40.086 3e-4 -60.131-0.01z" fill="#f60"/>
   <path d="m991.89 1102.7c9.1885 0.01 18.378-9e-4 27.566-0.018 21.292-0.1325 42.813 0.06 63.961-0.3574-5.8402-10.073-11.583-20.244-17.559-30.211-46.501 0.1385-93.039 0.1444-139.52 0.3653-5.6572 9.9985-11.776 19.996-17.146 29.994 27.566 0.1121 55.13 0.2123 82.695 0.2266zm74.611-32.463c16.761-28.41 33.101-57.267 49.684-85.857 6.1414-10.964 12.871-21.795 18.633-32.861-4.6945-1.3955-10.026-0.25652-14.924-0.65039-4.3455-1.2124-4.6163 4.6373-6.8555 7.0468-18.501 32.166-37.306 64.203-55.57 96.477 1.6888 5.6013 5.1211 10.676 8.3692 15.514 0.1738 0.1646 0.401 0.3733 0.664 0.332zm-140.32 0c3.6347-3.9341 5.8757-9.1773 8.3593-13.939 1.7596-3.0584-2.2543-5.5272-3.0156-8.2559-18.688-32.406-37.372-64.855-56.174-97.17-5.8147 0.38211-11.963-0.73885-17.615 0.60156 2.5909 5.8196 6.4909 11.422 9.5391 17.16 19.562 33.861 38.972 67.91 58.721 101.6 0.06 0.017 0.1249 0.016 0.1856 0zm129.7-15.326 0.086-0.1503c-3.6379-6.2216-7.1777-12.541-10.875-18.703-32.577 0.033-65.189-0.065-97.744 0.051-3.5057 6.2681-7.481 12.535-10.701 18.803h119.23zm-10.162-20.451c16.359-27.411 32.5-55.009 48.117-82.836-1.9785-1.3936-5.199-0.29419-7.5528-0.63281-3.3764 0.0881-6.7894 0.0646-10.142 0.24023-13.175 22.9-26.486 45.764-39.578 68.686 3.08 4.7214 5.4528 10.424 9.1563 14.543zm-98.879-0.2188h0.037c3.7538-4.2361 6.1495-9.6357 9.0938-14.436-13.188-22.737-26.116-45.653-39.533-68.24-5.5579-1.2069-11.502-0.74434-17.162-0.35351-1.6811 0.65738 1.1646 2.7017 1.1583 3.7285 15.278 26.533 30.47 53.199 46.406 79.305zm47.465-14.852c4.1145 0 8.2292-6e-4 12.344-0.018 9.5359-0.1299 19.297 0.053 28.688-0.3633-2.5715-4.4441-5.0385-8.993-7.6719-13.375-20.959 0.033-41.952-0.065-62.889 0.051-2.4361 4.491-5.3482 8.9828-7.5 13.473 12.343 0.1164 24.686 0.2179 37.029 0.2325zm33.631-14.883 0.1211-0.01c10.636-17.668 21.187-35.691 31.08-53.629-20.731 0.10031-41.694-0.20001-62.281 0.14844 10.457 17.768 20.302 35.925 31.08 53.486zm-63.346 0 0.025-0.016c10.747-17.577 20.611-35.704 31.055-53.471-20.588-0.34813-41.548-0.0484-62.279-0.14844 9.8947 17.937 20.441 35.961 31.078 53.629l0.1211 0.01zm-39.637-54.039c2.5688-1e-3 5.1359-0.0532 7.6797-0.0684 10.494-18.256 21.119-36.477 31.519-54.762-2.8398-4.1455-4.856-9.3658-8.0664-13.012-12.989 22.475-26.285 45.016-38.818 67.607 2.5475 0.18645 5.1168 0.23559 7.6856 0.23437zm-104.08 0c5.9383-0.0551 11.876-0.109 17.814-0.16406 5.9619-0.0884 11.959-0.0448 17.898-0.21484 23.132-40.126 46.398-80.217 69.447-120.37-5.9815-9.7293-10.927-20.186-17.652-29.414-1.7684-0.8095-1.9099 3.2163-3.0937 3.8652-28.171 48.711-56.45 97.632-84.414 146.29zm239.1-0.0195c3.0726-6e-3 6.1463 0.0144 9.2188-0.01 1.8826-0.27263 4.4695 0.33674 6.0176-0.65235-12.97-22.312-25.379-45.009-39.182-66.807-2.8501 3.9096-5.1562 8.5742-7.6269 12.816 10.53 18.209 20.971 36.51 31.572 54.652zm-181.15-4e-3c2.6712 0.0257 5.4771-0.16875 8.1348-0.13672 3.5776-0.091 7.193-0.0467 10.748-0.21875 16.197-28.321 32.918-56.4 48.643-84.955-3.5289-5.7041-6.2929-12.264-10.574-17.318-20.354 33.86-39.699 68.353-59.566 102.51 0.8501 0.0739 1.7249 0.10665 2.6152 0.11524zm283.99-0.0508c2.9644 5e-3 5.9149-0.0139 8.8418-0.0742-29.143-50.314-57.984-100.81-87.387-150.97-6.1505 9.8372-11.931 20.334-17.791 30.465 23.19 40.095 46.287 80.285 69.537 120.32 8.888 7e-3 17.906 0.24125 26.799 0.25585zm-50.799-0.0391c1.0047-0.32308 3.7957 0.57493 3.9082-0.86914-19.766-33.924-39.053-68.139-59.258-101.8-3.8827 5.4037-7.3919 11.641-10.475 17.609 15.883 28.472 32.394 56.635 48.705 84.842 5.7061 0.0711 11.412 0.22703 17.119 0.21679zm-115.69-1.1738 0.041-0.0391c10.478-17.286 20.674-34.775 30.457-52.461-11.649-0.8688-23.735-0.349-35.539-0.5195-8.4868 0.1984-17.261-0.2751-25.59 0.5195 9.804 17.693 19.977 35.225 30.498 52.5h0.13281zm-0.0156-67.744c13.201 0.01 26.399 0 39.582-0.057 2.898-5.236 6.2651-10.47 8.8926-15.695-32.35 0.1-64.932-0.198-97.139 0.1504 3.045 5.18 5.9801 10.463 9.0665 15.594 13.194-0.017 26.397 0 39.598 0.01zm0-35.443c20.045 0.01 40.087 0 60.115-0.057 2.7639-5.2446 6.477-10.627 8.6895-15.83-44.746-0.7673-89.514-0.5707-134.27-0.1367-1.2534 0.2138-5.0648-0.6863-2.8711 1.6484 2.7043 4.801 5.3873 9.6574 8.2012 14.369 20.039-0.017 40.086-3e-4 60.131 0.01z" fill="#fea"/>
  </g>
  <g transform="translate(78.544 -476.14)">
   <path d="m225.41 780.49c-6.7586 9.4646-12.07 20.022-17.986 30.025 23.281 40.251 46.466 80.6 69.807 120.79 11.737-0.0985 23.692 0.19415 35.293-0.14648-28.726-50.376-57.857-100.54-87.027-150.66-0.0259-0.0127-0.0576-0.0175-0.0859-0.0117zm-175.79 0.40625c-5.2429 6.4046-8.7964 14.202-13.258 21.203-25.043 42.934-49.792 86.039-74.656 129.08 11.733 0.20823 23.873-0.10641 35.727-0.23047 23.156-40.168 46.446-80.3 69.52-120.49-5.8124-9.7918-11.179-20.108-17.332-29.559zm147.68 47.479c-0.0299-2e-3 -0.0624 8e-3 -0.0879 0.0352-3.5524 5.7272-7.2078 11.63-9.8398 17.775 15.783 28.628 32.416 56.827 48.748 85.121 7.0165-0.0994 14.259 0.19793 21.135-0.14844-19.573-34.467-39.37-68.828-59.875-102.75-0.0213-0.0213-0.0502-0.0355-0.0801-0.0371zm-120.67 0.0117c-20.156 34.07-39.716 68.555-59.617 102.8 7.0068 0.20637 14.421-0.11529 21.547-0.24024 16.308-28.323 32.749-56.608 48.975-84.953-3.6677-5.7776-6.4842-12.428-10.904-17.605zm100.46 34.611-3.8867 6.6856c-1.1489 3.149-5.8104 6.3094-2.334 9.4805 9.9622 17.093 19.611 34.4 29.803 51.342 3.8995 1.649 8.5358 0.48436 12.701 0.70117 0.75096-0.21614 3.7205 0.36238 2.3555-1.2363-12.714-22.386-25.576-44.952-38.639-66.973zm-79.787 0.35742-0.10156 0.0293c-13.375 22.421-26.419 45.052-39.281 67.773 5.0098 0.31039 10.423 0.11649 15.551 0.0996 10.347-18.258 21.343-36.193 31.055-54.785-1.9439-4.563-4.3255-9.1091-7.2227-13.117zm69.922 13.074c-1.0776-0.096-3.0825 0.41131-3.6504 0.0781-4.8804-0.031-9.7602-0.0229-14.641-0.0137-14.242 0.14367-28.714-0.0623-42.812 0.35547 10.365 17.663 20.092 35.761 31.074 53.027 10.66-17.044 20.569-34.74 30.457-52.309 0.53082-0.80561 0.21881-1.0811-0.42773-1.1387zm-61.83 55.281c-10.407-0.0186-20.797-6e-3 -31.092 0.16797 10.388 17.719 20.285 35.77 31.008 53.268 1.5764-0.3045 2.2003-3.9615 3.4824-5.1933 9.228-16.058 18.675-32.274 27.799-48.225-10.367 0.0499-20.79 1e-3 -31.197-0.0176zm36.248 0.0879c-1.196 4e-3 -2.3092 0.0972-3.1973 0.43359 9.9292 17.798 19.925 35.679 30.469 53.061 4.451-6.4254 8.1574-13.919 12.318-20.738 6.1531-10.835 12.749-21.676 18.607-32.514-17.399-0.0747-34.8-0.23486-52.199-0.20313-1.7834 0.19838-4.0048-0.0458-5.998-0.0391zm26.895 54.637c-10.473 0.053-20.947 0.1087-31.42 0.1621-10.498 0.087-21.032 0.042-31.508 0.2109-2.4924 4.5061-5.4628 9.0112-7.668 13.518 26.06-0.1968 52.223 0.4522 78.223-0.5215-2.4378-4.4854-5.0291-8.9794-7.627-13.369zm-80.363 30.539c-3.5043 6.265-7.479 12.53-10.697 18.795h119.38c-3.1461-6.1816-6.9891-12.442-10.525-18.543-32.714-0.068-65.463-0.2686-98.154-0.2519zm118.43 35.383c-23.144 0-46.288 0.01-69.432 0.01-23.168 0.036-46.372-0.062-69.518 0.057-5.8436 10.403-12.205 20.794-17.707 31.223 58.067-0.1275 116.15 0.3096 174.21-0.3887-5.337-10.433-11.681-20.672-17.551-30.9z" fill="#ff6500"/>
   <path d="m48.816 1083.7c6.7586-9.4646 12.07-20.022 17.986-30.025-23.281-40.252-46.466-80.6-69.807-120.79-11.737 0.0985-23.692-0.19415-35.293 0.14648 28.726 50.376 57.857 100.54 87.027 150.66 0.026 0.013 0.058 0.017 0.086 0.012zm175.79-0.4063c5.2429-6.4046 8.7964-14.202 13.258-21.203 25.043-42.934 49.792-86.039 74.656-129.08-11.733-0.20823-23.873 0.10641-35.727 0.23047-23.156 40.168-46.446 80.3-69.52 120.49 5.8124 9.7919 11.179 20.108 17.332 29.559zm-147.68-47.5c0.0299 0 0.0624-0.01 0.0879-0.035 3.5524-5.7272 7.2078-11.63 9.8398-17.775-15.783-28.628-32.416-56.827-48.748-85.121-7.0165 0.0994-14.259-0.19793-21.135 0.14844 19.573 34.467 39.37 68.829 59.875 102.75 0.0213 0.021 0.0502 0.035 0.0801 0.037zm120.67-0.012c20.156-34.07 39.716-68.555 59.617-102.8-7.0068-0.20637-14.421 0.11529-21.547 0.24024-16.308 28.323-32.749 56.608-48.975 84.953 3.6677 5.7777 6.4842 12.428 10.904 17.606zm-100.46-34.611 3.8867-6.6856c1.1489-3.149 5.8104-6.3094 2.334-9.4805-9.9622-17.093-19.611-34.4-29.803-51.342-3.8995-1.649-8.5358-0.48436-12.701-0.70117-0.7509 0.21614-3.7205-0.36238-2.3555 1.2363 12.714 22.386 25.576 44.952 38.639 66.973zm79.787-0.3574 0.10156-0.029c13.375-22.421 26.419-45.052 39.281-67.773-5.0098-0.31039-10.423-0.11649-15.551-0.0996-10.347 18.258-21.343 36.193-31.055 54.785 1.9439 4.563 4.3255 9.1091 7.2226 13.117zm-69.922-13.074c1.0776 0.096 3.0825-0.41131 3.6504-0.0781 4.8804 0.031 9.7602 0.0229 14.641 0.0137 14.242-0.14367 28.714 0.0623 42.812-0.35547-10.365-17.663-20.092-35.761-31.074-53.027-10.66 17.044-20.569 34.74-30.457 52.309-0.53082 0.80561-0.21881 1.0811 0.42773 1.1387zm61.83-55.281c10.407 0.0186 20.797 6e-3 31.092-0.16797-10.388-17.719-20.285-35.77-31.008-53.268-1.5764 0.3045-2.2003 3.9615-3.4824 5.1933-9.228 16.058-18.675 32.274-27.799 48.225 10.367-0.0499 20.79-1e-3 31.197 0.0176zm-36.24-0.09c1.196-4e-3 2.3092-0.0972 3.1973-0.43359-9.9292-17.798-19.925-35.679-30.469-53.061-4.451 6.4254-8.1574 13.919-12.318 20.738-6.1531 10.835-12.749 21.676-18.607 32.514 17.399 0.0747 34.8 0.23486 52.199 0.20313 1.7834-0.19838 4.0048 0.0458 5.998 0.0391zm-26.895-54.637c10.473-0.053 20.947-0.1087 31.42-0.1621 10.498-0.087 21.032-0.042 31.508-0.2109 2.4924-4.5061 5.4628-9.0112 7.668-13.518-26.06 0.1968-52.223-0.4522-78.223 0.5215 2.4378 4.4854 5.0291 8.9794 7.6269 13.369zm80.363-30.539c3.5043-6.265 7.479-12.53 10.697-18.795h-119.38c3.1461 6.1816 6.9891 12.442 10.525 18.543 32.714 0.068 65.463 0.2686 98.154 0.2519zm-118.42-35.38c23.144 0 46.288-0.01 69.432-0.01 23.168-0.036 46.372 0.062 69.518-0.057 5.8436-10.403 12.205-20.794 17.707-31.223-58.067 0.1275-116.15-0.3096-174.21 0.3887 5.3369 10.433 11.681 20.672 17.551 30.9z" fill="#a40"/>
  </g>
 </g>
</svg>
