<?xml version="1.0" encoding="UTF-8"?>
<!DOCTYPE svg PUBLIC "-//W3C//DTD SVG 1.1//EN" "http://www.w3.org/Graphics/SVG/1.1/DTD/svg11.dtd">
<!-- Creator: CorelDRAW X6 -->
<svg xmlns="http://www.w3.org/2000/svg" xml:space="preserve" width="100.109mm" height="29.8598mm" version="1.1" style="shape-rendering:geometricPrecision; text-rendering:geometricPrecision; image-rendering:optimizeQuality; fill-rule:evenodd; clip-rule:evenodd" viewBox="0 0 9421 2810" xmlns:xlink="http://www.w3.org/1999/xlink">
 <defs>
  <style type="text/css">
   <![CDATA[
    .fil0 {fill:#006CB5}
    .fil1 {fill:#C62829}
   ]]>
  </style>
 </defs>
 <g id="Слой_x0020_1">
  <metadata id="CorelCorpID_0Corel-Layer"/>
  <path class="fil0" d="M7693 602l-323 0 0 -350c0,-130 140,-229 257,-233l1510 0c128,2 281,133 281,250l0 510c0,74 -50,111 -97,121 46,17 102,58 101,115l0 462c-3,143 -183,288 -319,288l-1433 0c-138,0 -313,-133 -316,-285l0 -302 326 0 0 187c1,36 36,73 73,73l1267 0c41,1 79,-29 80,-73l0 -229c0,-42 -38,-94 -87,-94l-1138 0 0 -292 1145 0c47,-1 80,-46 80,-87l0 -264c-1,-31 -38,-76 -83,-76l-1242 0c-45,2 -78,30 -80,76l0 201zm-7386 252l0 -808 -307 0 0 971c0,121 142,228 263,227l1497 0 0 474 323 0 0 -1688 -323 0 0 904 -1374 0c-36,-1 -77,-33 -80,-80zm2023 -275l317 0 0 -191c0,-41 24,-79 76,-79l1256 0c47,0 79,36 79,72l0 338 -1228 0 0 295 1224 0 0 320c0,39 -29,71 -72,72l-1256 0c-35,-1 -74,-28 -76,-68l0 -191 -324 0 0 346c0,118 124,219 256,220l1480 0c154,0 317,-134 313,-274l0 -1163c-3,-138 -118,-277 -284,-277l-1494 0c-120,-1 -266,91 -266,227l0 353z"/>
  <path class="fil1" d="M3910 2556l270 0 1453 -2542 -254 0 -1469 2542zm2587 -2537l-515 0 576 1173 -1247 0 644 -1173 -243 0 -956 1692 973 0 -85 1099 920 -1604 660 1324 497 0 -1224 -2511z"/>
 </g>
</svg>